Run_40002
nRows=4
nColumns=164

# SIMM Motion File Header:
name Run_40002
datacolumns 164
datarows 4
otherdata 1
range 4.16000000 4.19000000
endheader
time	pelvis_tilt	pelvis_list	pelvis_rotation	pelvis_tx	pelvis_ty	pelvis_tz	hip_flexion_r	hip_adduction_r	hip_rotation_r	knee_angle_r	ankle_angle_r	hip_flexion_l	hip_adduction_l	hip_rotation_l	knee_angle_l	ankle_angle_l	lumbar_extension	lumbar_bending	lumbar_rotation	arm_flex_r	arm_add_r	arm_rot_r	elbow_flex_r	pro_sup_r	arm_flex_l	arm_add_l	arm_rot_l	elbow_flex_l	pro_sup_l	subtalar_angle_r	mtp_angle_r	subtalar_angle_l	mtp_angle_l	wrist_flex_r	wrist_dev_r	wrist_flex_l	wrist_dev_l	LASI_tx	LASI_ty	LASI_tz	RASI_tx	RASI_ty	RASI_tz	LPSI_tx	LPSI_ty	LPSI_tz	RPSI_tx	RPSI_ty	RPSI_tz	RTH1_tx	RTH1_ty	RTH1_tz	RTH2_tx	RTH2_ty	RTH2_tz	RTH3_tx	RTH3_ty	RTH3_tz	LTH1_tx	LTH1_ty	LTH1_tz	LTH2_tx	LTH2_ty	LTH2_tz	LTH3_tx	LTH3_ty	LTH3_tz	RTB1_tx	RTB1_ty	RTB1_tz	RTB2_tx	RTB2_ty	RTB2_tz	RTB3_tx	RTB3_ty	RTB3_tz	LTB1_tx	LTB1_ty	LTB1_tz	LTB2_tx	LTB2_ty	LTB2_tz	LTB3_tx	LTB3_ty	LTB3_tz	RCAL_tx	RCAL_ty	RCAL_tz	RTOE_tx	RTOE_ty	RTOE_tz	RMT5_tx	RMT5_ty	RMT5_tz	LCAL_tx	LCAL_ty	LCAL_tz	LTOE_tx	LTOE_ty	LTOE_tz	LMT5_tx	LMT5_ty	LMT5_tz	LACR_tx	LACR_ty	LACR_tz	RACR_tx	RACR_ty	RACR_tz	CLAV_tx	CLAV_ty	CLAV_tz	C7_tx	C7_ty	C7_tz	RUA1_tx	RUA1_ty	RUA1_tz	RUA2_tx	RUA2_ty	RUA2_tz	RUA3_tx	RUA3_ty	RUA3_tz	RLEL_tx	RLEL_ty	RLEL_tz	RMEL_tx	RMEL_ty	RMEL_tz	LUA1_tx	LUA1_ty	LUA1_tz	LUA2_tx	LUA2_ty	LUA2_tz	LUA3_tx	LUA3_ty	LUA3_tz	LLEL_tx	LLEL_ty	LLEL_tz	LMEL_tx	LMEL_ty	LMEL_tz	RFAsuperior_tx	RFAsuperior_ty	RFAsuperior_tz	RFAradius_tx	RFAradius_ty	RFAradius_tz	RFAulna_tx	RFAulna_ty	RFAulna_tz	LFAsuperior_tx	LFAsuperior_ty	LFAsuperior_tz	LFAradius_tx	LFAradius_ty	LFAradius_tz	LFAulna_tx	LFAulna_ty	LFAulna_tz
      4.16000000	    -10.43665429	     -4.36110335	      7.99456738	      0.88002860	      0.95423893	     -0.31664488	     61.85140256	     -2.23181829	    -10.37614968	    -91.56546647	      8.89480268	    -12.11082525	     -1.89099697	      3.04457175	    -18.04897999	    -15.99627393	     -2.30031747	      3.00751896	    -16.66467075	    -52.46034315	    -17.50807241	     -9.07309363	     98.41920136	     86.80061170	      3.31300114	    -30.26021321	      3.10724203	    125.77892647	    109.88707053	      0.00000000	      0.00000000	      0.00000000	      0.00000000	      0.00000000	      0.00000000	      0.00000000	      0.00000000	      0.87157722	      0.95904965	     -0.43811422	      0.90516996	      0.98732399	     -0.20075744	      0.72487548	      1.02729707	     -0.35173153	      0.73060922	      1.03297424	     -0.25129253	      0.95868111	      0.81235988	     -0.12866065	      1.06151086	      0.79876863	     -0.14927340	      1.08358735	      0.69797079	     -0.16417549	      0.75406355	      0.77573894	     -0.46886277	      0.75621249	      0.66079009	     -0.45952484	      0.65306701	      0.58840994	     -0.43648466	      1.10343439	      0.51860855	     -0.23804107	      1.03152562	      0.47234692	     -0.19072700	      0.98019625	      0.37589100	     -0.25332743	      0.58268400	      0.39214368	     -0.37284872	      0.48217839	      0.36851517	     -0.41698708	      0.44865547	      0.25798567	     -0.34991461	      0.83348433	      0.33975670	     -0.26487532	      1.01328553	      0.21334092	     -0.29273716	      0.96572892	      0.20685566	     -0.18945141	      0.30050144	      0.24236916	     -0.32471429	      0.42000096	      0.06993765	     -0.29104715	      0.35394927	      0.05811233	     -0.38563552	      0.91639529	      1.46343601	     -0.46618840	      0.88675000	      1.46293109	     -0.17537266	      0.98544708	      1.38695469	     -0.29435796	      0.84604516	      1.48708161	     -0.32408709	      0.78496829	      1.41616354	     -0.08986927	      0.71150817	      1.39976973	     -0.14377477	      0.68239979	      1.34743703	     -0.06904094	      0.61376986	      1.31874376	     -0.05296994	      0.59746827	      1.30750535	     -0.12825845	      0.89227416	      1.35277462	     -0.56727549	      0.84200948	      1.28493041	     -0.56299116	      0.90501487	      1.25625924	     -0.61091508	      0.90378462	      1.17200005	     -0.64606302	      0.86988252	      1.13643578	     -0.58776757	      0.67519988	      1.22008516	     -0.03486492	      0.75854461	      1.11996706	     -0.08538801	      0.69533291	      1.09138239	     -0.06836661	      0.99588261	      1.21708858	     -0.58383065	      1.06849364	      1.23251212	     -0.46437080	      1.10757106	      1.19262731	     -0.50309252
      4.17000000	    -11.08604679	     -5.00401429	      7.50681117	      0.88229351	      0.95768835	     -0.31618226	     62.46756101	     -1.32507995	    -11.13143309	    -84.66518493	      9.03794633	    -13.86669119	     -3.07531490	      2.64938755	    -16.14577931	    -21.70458231	     -1.29655465	      3.77557017	    -16.40317633	    -53.83309940	    -16.86108028	     -9.95355460	     99.04873993	     86.49324577	      3.93536777	    -30.10714890	      3.61657399	    127.41903007	    109.58215676	      0.00000000	      0.00000000	      0.00000000	      0.00000000	      0.00000000	      0.00000000	      0.00000000	      0.00000000	      0.87426450	      0.96083277	     -0.43742160	      0.90720550	      0.99177695	     -0.20018671	      0.72798886	      1.03226678	     -0.35362572	      0.73304917	      1.03739190	     -0.25310610	      0.96026489	      0.81688965	     -0.12881516	      1.06270065	      0.80248057	     -0.14909485	      1.08419983	      0.70213339	     -0.16731067	      0.75042472	      0.78071933	     -0.46921818	      0.74714456	      0.66638957	     -0.46012919	      0.64193902	      0.59827370	     -0.43667992	      1.11757947	      0.51910148	     -0.24013154	      1.05050956	      0.46500464	     -0.19343477	      1.01116488	      0.36365104	     -0.25773639	      0.56636756	      0.40297593	     -0.37614186	      0.46571680	      0.38209969	     -0.42155090	      0.43120635	      0.26985558	     -0.35746028	      0.86938499	      0.31050182	     -0.27046982	      1.06339723	      0.20805211	     -0.30016352	      1.01630587	      0.19231080	     -0.19781563	      0.28814002	      0.26226620	     -0.33686500	      0.38909655	      0.07735398	     -0.29600650	      0.32234756	      0.06978749	     -0.38878596	      0.91821741	      1.46856109	     -0.46449564	      0.88766506	      1.46673194	     -0.17587099	      0.98617272	      1.39129376	     -0.29327421	      0.84682908	      1.49069371	     -0.32413094	      0.78457899	      1.42293224	     -0.09041291	      0.71257588	      1.40667514	     -0.14661609	      0.68085347	      1.35468012	     -0.07245890	      0.61143491	      1.32666205	     -0.05780772	      0.59670550	      1.31537044	     -0.13353795	      0.89727006	      1.35947792	     -0.56668325	      0.84634768	      1.29165985	     -0.56308522	      0.90946659	      1.26234918	     -0.60983886	      0.90996762	      1.17748500	     -0.64501316	      0.87602153	      1.14140899	     -0.58711085	      0.67162063	      1.22781368	     -0.03819422	      0.75566871	      1.12704391	     -0.08688367	      0.69189654	      1.09890849	     -0.07159860	      0.99978890	      1.22628578	     -0.58249491	      1.06874025	      1.24566291	     -0.46167062	      1.11054390	      1.20685457	     -0.49785160
      4.18000000	    -11.75938033	     -5.49601077	      7.07805061	      0.88407919	      0.96043694	     -0.31583097	     62.61935004	     -0.50479831	    -11.76991496	    -77.26873367	      9.00629278	    -14.76613810	     -3.96047715	      2.35910510	    -15.89368761	    -26.28752896	     -0.35744666	      4.37267718	    -16.12262668	    -54.94999718	    -16.20840610	    -10.75904513	     99.66848489	     86.05471168	      4.44559325	    -29.96423445	      4.09689600	    128.83005861	    109.51697679	      0.00000000	      0.00000000	      0.00000000	      0.00000000	      0.00000000	      0.00000000	      0.00000000	      0.00000000	      0.87625389	      0.96243458	     -0.43708295	      0.90873024	      0.99466157	     -0.19998499	      0.73081445	      1.03650310	     -0.35571336	      0.73468987	      1.04130858	     -0.25500129	      0.96060892	      0.81902378	     -0.12949088	      1.06288143	      0.80383907	     -0.14916186	      1.08361944	      0.70327241	     -0.17003900	      0.74821173	      0.78523093	     -0.46966471	      0.74155974	      0.67122039	     -0.45964642	      0.63480466	      0.60618940	     -0.43667160	      1.12940440	      0.51764437	     -0.24200649	      1.06811657	      0.45628488	     -0.19570239	      1.04125936	      0.35123240	     -0.26150380	      0.55377634	      0.41240151	     -0.37713811	      0.45470539	      0.39323116	     -0.42617016	      0.41580473	      0.28180875	     -0.36242305	      0.90635401	      0.28169986	     -0.27613297	      1.11157396	      0.20471478	     -0.30694233	      1.06600439	      0.17955881	     -0.20591885	      0.27824969	      0.28226688	     -0.34700506	      0.35873143	      0.08643336	     -0.30162706	      0.29341634	      0.08530145	     -0.39302015	      0.91973823	      1.47289162	     -0.46307513	      0.88885889	      1.46962960	     -0.17635635	      0.98708774	      1.39478782	     -0.29243632	      0.84762942	      1.49346837	     -0.32438223	      0.78475580	      1.42873557	     -0.09126066	      0.71411324	      1.41227625	     -0.14922295	      0.67990608	      1.36076454	     -0.07546775	      0.60990610	      1.33314901	     -0.06194231	      0.59662698	      1.32166402	     -0.13796599	      0.90159544	      1.36519955	     -0.56597812	      0.84970621	      1.29732811	     -0.56255991	      0.91316958	      1.26774118	     -0.60881326	      0.91496773	      1.18217134	     -0.64425229	      0.88071065	      1.14563185	     -0.58675199	      0.66909952	      1.23427143	     -0.04092584	      0.75397484	      1.13309771	     -0.08808199	      0.69016497	      1.10512361	     -0.07470193	      1.00284413	      1.23387699	     -0.58154003	      1.06826926	      1.25642214	     -0.45960553	      1.11261215	      1.21881354	     -0.49353864
      4.19000000	    -12.33299005	     -5.89261154	      6.78511977	      0.88543723	      0.96253669	     -0.31548963	     62.13492552	      0.28118910	    -12.30440430	    -69.32133842	      8.83410140	    -14.85855738	     -4.66222046	      2.41022682	    -17.49771329	    -29.56023050	      0.38404743	      4.84736302	    -15.86965643	    -55.75443124	    -15.56608769	    -11.41664798	    100.23837062	     85.52231445	      4.86182590	    -29.86908977	      4.57256067	    129.96655422	    109.47959117	      0.00000000	      0.00000000	      0.00000000	      0.00000000	      0.00000000	      0.00000000	      0.00000000	      0.00000000	      0.87761602	      0.96410733	     -0.43695912	      0.90976215	      0.99616881	     -0.20010007	      0.73318153	      1.03981837	     -0.35758881	      0.73567828	      1.04473320	     -0.25654094	      0.95984596	      0.81900908	     -0.13048615	      1.06229700	      0.80325754	     -0.14999930	      1.08171302	      0.70132065	     -0.17194041	      0.74800684	      0.78869939	     -0.46989262	      0.74029329	      0.67442541	     -0.45785858	      0.63194464	      0.61139950	     -0.43668578	      1.13852298	      0.51373463	     -0.24343060	      1.08412476	      0.44552603	     -0.19767966	      1.06987656	      0.33843047	     -0.26471340	      0.54464916	      0.42000302	     -0.37645832	      0.44906109	      0.40118189	     -0.43106281	      0.40193222	      0.29357729	     -0.36528553	      0.94358554	      0.25348632	     -0.28154129	      1.15683480	      0.20281512	     -0.31313128	      1.11420174	      0.16891944	     -0.21344181	      0.26986734	      0.30203422	     -0.35398851	      0.32881461	      0.09740633	     -0.30772801	      0.26672955	      0.10399629	     -0.39870226	      0.92114576	      1.47629098	     -0.46203253	      0.89024096	      1.47167092	     -0.17656229	      0.98820578	      1.39744320	     -0.29180612	      0.84842907	      1.49544989	     -0.32463623	      0.78555488	      1.43311951	     -0.09213090	      0.71604508	      1.41633725	     -0.15137559	      0.67972093	      1.36554444	     -0.07793496	      0.60929560	      1.33807822	     -0.06519812	      0.59744811	      1.32629674	     -0.14142124	      0.90480678	      1.36954193	     -0.56520124	      0.85208775	      1.30147751	     -0.56167707	      0.91603988	      1.27216304	     -0.60799771	      0.91866200	      1.18590066	     -0.64388197	      0.88405539	      1.14900840	     -0.58665070	      0.66772539	      1.23922687	     -0.04299933	      0.75347405	      1.13788300	     -0.08898897	      0.69023619	      1.10981492	     -0.07755349	      1.00512325	      1.23954148	     -0.58089041	      1.06731237	      1.26452732	     -0.45828838	      1.11389839	      1.22805510	     -0.49008444
